<svg width="35" height="36" viewBox="0 0 35 36" fill="none" xmlns="http://www.w3.org/2000/svg">
<rect width="35" height="36" fill="#E5E5E5"/>
<g id="Group 1454">
<g id="Macbook" clip-path="url(#clip0_0_1)">
<rect width="1400" height="6811" transform="translate(-779 -2510)" fill="white"/>
<g id="Group 1432">
<g id="Group 197">
<g id="05 Product Managers">
<g id="Text" clip-path="url(#clip1_0_1)">
<g id="2">
<g id="Group 13 Copy">
<g id="Rectangle">
<rect x="1.45833" y="1.7596" width="32.0833" height="32.0833" rx="12.3958" fill="#4D8DFF"/>
<rect x="1.45833" y="1.7596" width="32.0833" height="32.0833" rx="12.3958" stroke="white" stroke-width="2.91667"/>
<rect x="1.45833" y="1.7596" width="32.0833" height="32.0833" rx="12.3958" stroke="#4D8DFF" stroke-width="2.91667"/>
</g>
<g id="tick">
<path id="Path" d="M25.7657 12.5406C25.4533 12.2215 24.9468 12.2215 24.6343 12.5406L15.0498 22.329L11.3657 18.5665C11.0533 18.2475 10.5468 18.2475 10.2343 18.5665C9.92189 18.8856 9.92189 19.4029 10.2343 19.7219L14.4841 24.0621C14.7964 24.3811 15.3033 24.3809 15.6155 24.0621L25.7657 13.696C26.0781 13.377 26.0781 12.8597 25.7657 12.5406Z" fill="white"/>
</g>
</g>
</g>
</g>
</g>
</g>
</g>
</g>
</g>
<defs>
<clipPath id="clip0_0_1">
<rect width="1400" height="6811" fill="white" transform="translate(-779 -2510)"/>
</clipPath>
<clipPath id="clip1_0_1">
<rect width="486" height="427" fill="white" transform="translate(0 -382.699)"/>
</clipPath>
</defs>
</svg>
